<?xml version="1.0" encoding="utf-8"?>
<svg xmlns="http://www.w3.org/2000/svg" viewBox="0 0 48 48" width="50" height="50">
  <path fill="#2196f3" d="M0 35c0-3.866 3.582-7 8-7s8 3.134 8 7H0zM32 35c0-3.866 3.582-7 8-7s8 3.134 8 7H32z" />
  <path fill="#d19d05" d="M42.001 26h-4v3c0 0 .328 1 1.959 1s2.041-1 2.041-1V26zM43.5 22A1.5 1.5 0 1 0 43.5 25 1.5 1.5 0 1 0 43.5 22zM36.5 22A1.5 1.5 0 1 0 36.5 25 1.5 1.5 0 1 0 36.5 22z" />
  <path fill="#ffca28" d="M44,20.216C44,18.01,42.206,18,40,18s-4,0.01-4,2.216c0,0.347,0,3.436,0,3.784c0,2.206,1.794,4,4,4 s4-1.794,4-4C44,23.653,44,20.564,44,20.216z" />
  <path fill="#424242" d="M39.781,16C37.344,16.219,35,17.93,35,21.574V23l1,1v-3l6.31-2.201L44,21v3l1-1v-1.203 c0-2.414-0.135-4.205-3-4.797l-0.485-1H39.781z" />
  <path fill="#d19d05" d="M10.001 26h-4v3c0 0 .328 1 1.959 1s2.041-1 2.041-1V26zM11.5 22A1.5 1.5 0 1 0 11.5 25 1.5 1.5 0 1 0 11.5 22zM4.5 22A1.5 1.5 0 1 0 4.5 25 1.5 1.5 0 1 0 4.5 22z" />
  <path fill="#ffca28" d="M12,20.216C12,18.01,10.206,18,8,18s-4,0.01-4,2.216C4,20.563,4,23.652,4,24c0,2.206,1.794,4,4,4 s4-1.794,4-4C12,23.653,12,20.564,12,20.216z" />
  <path fill="#424242" d="M7.781,16C5.344,16.219,3,17.93,3,21.574V23l1,1v-3l6.31-2.201L12,21v3l1-1v-1.203 c0-2.414-0.135-4.205-3-4.797l-0.485-1H7.781z" />
  <path fill="#edbd28" d="M32,20.5c0,0.828-0.672,1.5-1.5,1.5c-0.829,0-1.5-0.672-1.5-1.5s0.671-1.5,1.5-1.5 C31.328,19,32,19.672,32,20.5 M19,20.5c0-0.828-0.672-1.5-1.5-1.5S16,19.672,16,20.5s0.672,1.5,1.5,1.5S19,21.328,19,20.5" />
  <path fill="#edb405" d="M28,29c0,0,0,4-4,4s-4-4-4-4" />
  <path fill="#4fc3f7" d="M27.75,29L27.75,29L24,29.77L20.25,29c0,0-8.25,1.527-8.25,10h24C36,30.559,27.75,29,27.75,29" />
  <path fill="#edb405" d="M24,33c-4,0-4-4-4-4v-4h8v4C28,29,28,33,24,33z" />
  <path fill="#ffca28" d="M31,16.68c0-5.879-14-3.828-14,0v4.391C17,24.895,20.133,28,24,28c3.866,0,7-3.105,7-6.93V16.68z" />
  <path fill="#01579b" d="M24,35c3.059,0,5.578-2.292,5.948-5.25c-0.884-0.398-1.603-0.607-1.954-0.693 C27.963,31.238,26.19,33,24,33s-3.964-1.762-3.994-3.945c-0.353,0.086-1.071,0.293-1.955,0.688C18.417,32.705,20.939,35,24,35z" />
  <path fill="#795548" d="M24,9c-4.86,0-8,4.313-8,8.172V19l2,2v-4l9.2-3l2.8,3v4l2-2v-0.809c0-3.218-0.831-6.803-4.8-7.592 L26.399,9H24z" />
  <path fill="#784719" d="M26,20c0-0.551,0.448-1,1-1s1,0.449,1,1s-0.448,1-1,1S26,20.551,26,20 M20,20c0,0.551,0.448,1,1,1 s1-0.449,1-1s-0.448-1-1-1S20,19.449,20,20" />
</svg>