<?xml version="1.0" encoding="utf-8"?>
<svg xmlns="http://www.w3.org/2000/svg" width="50" height="50" viewBox="0 0 48 48">
  <path fill="#455A64" d="M11 32c0-.553-.447-1-1-1H6c-.553 0-1 .447-1 1v6c0 .553.447 1 1 1h4c.553 0 1-.447 1-1V32zM43 32c0-.553-.447-1-1-1h-4c-.553 0-1 .447-1 1v6c0 .553.447 1 1 1h4c.553 0 1-.447 1-1V32z" />
  <path fill="#AB47BC" d="M44,20h-5H9H4c-0.553,0-1,0.447-1,1v2c0,0.553,0.447,1,1,1h3h1h32h1h3c0.553,0,1-0.447,1-1v-2C45,20.447,44.553,20,44,20z" />
  <path fill="#AB47BC" d="M41,23l-2-0.995C38.666,22.002,9.332,22,9,22l-2,1c-1.104,0-2,1.896-2,3v8c0,0.553,0.447,1,1,1h36c0.553,0,1-0.447,1-1v-8C43,24.896,42.104,23,41,23z" />
  <path fill="#AB47BC" d="M39.786,23.002C39.643,22.114,39.403,20.719,39,18.5C38,13,36.09,9,32.5,9h-17c-3.59,0-5.563,4.5-6.5,9.5c-0.408,2.176-0.65,3.593-0.793,4.502H39.786z" />
  <path fill="#212121" d="M41,31c0,0.553-0.447,1-1,1H8c-0.553,0-1-0.447-1-1v-3c0-0.553,0.447-1,1-1h32c0.553,0,1,0.447,1,1V31z" />
  <path fill="#FFEB3B" d="M9.5 28A1.5 1.5 0 1 0 9.5 31 1.5 1.5 0 1 0 9.5 28zM38.5 28A1.5 1.5 0 1 0 38.5 31 1.5 1.5 0 1 0 38.5 28z" />
  <path fill="#E3F2FD" d="M37.032,18.857C36.148,14,34.854,11,32.5,11h-17c-2.188,0-3.685,3.339-4.534,7.869C10.72,20.18,10.537,21.2,10.4,22h27.19C37.454,21.207,37.273,20.186,37.032,18.857z" />
  <g>
    <path fill="#FFB74D" d="M16.5 21c-1.93 0-3.5-1.568-3.5-3.5s1.57-3.5 3.5-3.5 3.5 1.568 3.5 3.5S18.43 21 16.5 21M30.5 21c-1.93 0-3.5-1.568-3.5-3.5s1.57-3.5 3.5-3.5 3.5 1.568 3.5 3.5S32.43 21 30.5 21" />
  </g>
  <path fill="#FFA726" d="M23.5,17.5c-1.378,0-2.5-1.121-2.5-2.5s1.122-2.5,2.5-2.5S26,13.621,26,15S24.878,17.5,23.5,17.5" />
</svg>